<?xml version="1.0" encoding="UTF-8" standalone="no"?>
<!-- Created with Inkscape (http://www.inkscape.org/) -->

<svg
   width="512"
   height="512"
   viewBox="0 0 512 512"
   version="1.1"
   id="svg5"
   inkscape:version="1.2.2 (732a01da63, 2022-12-09)"
   sodipodi:docname="alter-identity-logo-square.svg"
   xmlns:inkscape="http://www.inkscape.org/namespaces/inkscape"
   xmlns:sodipodi="http://sodipodi.sourceforge.net/DTD/sodipodi-0.dtd"
   xmlns="http://www.w3.org/2000/svg"
   xmlns:svg="http://www.w3.org/2000/svg"
   xmlns:rdf="http://www.w3.org/1999/02/22-rdf-syntax-ns#"
   xmlns:cc="http://creativecommons.org/ns#"
   xmlns:dc="http://purl.org/dc/elements/1.1/">
  <sodipodi:namedview
     id="namedview7"
     pagecolor="#ffffff"
     bordercolor="#000000"
     borderopacity="0.25"
     inkscape:showpageshadow="2"
     inkscape:pageopacity="0"
     inkscape:pagecheckerboard="0"
     inkscape:deskcolor="#d1d1d1"
     inkscape:document-units="px"
     showgrid="true"
     showguides="false"
     inkscape:zoom="0.70710678"
     inkscape:cx="11.313708"
     inkscape:cy="299.81327"
     inkscape:window-width="1920"
     inkscape:window-height="1009"
     inkscape:window-x="-8"
     inkscape:window-y="-8"
     inkscape:window-maximized="1"
     inkscape:current-layer="layer1">
    <sodipodi:guide
       position="0,512"
       orientation="0,512"
       id="guide165"
       inkscape:locked="false" />
    <sodipodi:guide
       position="512,512"
       orientation="512,0"
       id="guide167"
       inkscape:locked="false" />
    <sodipodi:guide
       position="512,0"
       orientation="0,-512"
       id="guide169"
       inkscape:locked="false" />
    <sodipodi:guide
       position="0,0"
       orientation="-512,0"
       id="guide171"
       inkscape:locked="false" />
    <inkscape:grid
       type="xygrid"
       id="grid173"
       spacingx="64"
       spacingy="64" />
  </sodipodi:namedview>
  <defs
     id="defs2">
    <rect
       x="0"
       y="0.87343467"
       width="511.83272"
       height="510.95928"
       id="rect237" />
  </defs>
  <g
     inkscape:label="Layer 1"
     inkscape:groupmode="layer"
     id="layer1">
    <path
       id="text243"
       style="font-style:normal;font-variant:normal;font-weight:normal;font-stretch:normal;font-size:96px;font-family:Bitter;-inkscape-font-specification:Bitter;letter-spacing:10px;fill:#000000;stroke-width:3.2"
       d="m 153.65299,135.034 h -81.1 v 13.212 l 24.349984,6.05712 65.656256,195.46876 h 26.41875 l 69.01251,-196.18124 24.68749,-5.34364 v -13.213 h -76.8 v 13.213 l 28.84999,6.11861 -56.88125,166.90001 -7.4625,-23.64999 44.18752,-129.65626 -28.85001,-4.58125 v -0.0191 h -20.34375 v 13.61868 l 28.84999,4.58124 -31.39373,92.13128 -37.85002,-119.91876 28.66877,-5.52544 z m 169.62499,0 v 14.75036 l 26.41879,4.61876 v 176.35625 l -20.15005,4.18749 V 167.99064 L 303.12797,163.378 h -20.34999 v 13.60016 l 26.42503,4.61251 c 0.0256,55.765 -0.0291,112.45381 -0.0128,167.87497 34.05105,0 70.02359,0 99.48809,0 v -13.21248 l -33.79376,-5.44998 v -37.2 c 10.51047,-1.29117 19.76343,-3.79926 27.70621,-7.56874 7.17885,-3.46978 13.27443,-7.73627 18.35629,-12.74377 -11.73943,5.14032 -26.11162,7.74377 -43.17501,7.74377 h -2.88752 v -13.59379 h 23.04374 c 18.02244,0 33.07316,-2.86557 45.15629,-8.6 12.288,-5.9392 21.50602,-14.13021 27.65002,-24.57501 6.14393,-10.44472 9.21245,-22.52843 9.21245,-36.24997 0,-12.4928 -2.55504,-23.45421 -7.67498,-32.87502 -5.12,-9.4208 -12.80374,-16.79394 -23.04378,-22.11875 -10.23993,-5.32479 -25.73856,-7.98742 -39.01248,-7.98748 z m 51.60624,18.74412 h 31.64375 c 15.56483,0 27.34409,3.99405 35.33126,11.98125 8.192,7.9872 12.28749,18.94237 12.28749,32.86877 0,15.35994 -4.91959,27.54509 -14.74995,36.55622 -4.52471,4.23591 -10.0137,7.43655 -16.3938,9.68125 7.31088,-8.52448 10.98752,-19.39728 10.98752,-32.64374 0,-13.92631 -4.09552,-24.88154 -12.28752,-32.86874 -0.88572,-0.88576 -1.83363,-1.70624 -2.81248,-2.49376 -0.30208,-0.24608 -0.6224,-0.47811 -0.93126,-0.71875 -7.76739,-5.83306 -18.27997,-8.76874 -31.58125,-8.76874 h -11.49376 z m -322.487454,9.6 -20.343776,-1.2e-4 v 13.60012 l 24.356256,4.51252 65.656224,195.47498 h 26.41875 L 153.2655,363.059 H 142.40925 L 76.752414,167.89067 52.40243,163.378 Z m 322.487454,18.11876 c 11.23395,1.27916 20.08711,5.06835 26.47501,11.45625 8.192,7.9872 12.28749,18.94243 12.28749,32.86874 0,8.32851 -1.44931,15.71735 -4.34375,22.17502 -3.59456,0.44617 -7.36464,0.70624 -11.375,0.70624 h -23.04375 z m -71.75625,177.71876 -20.34999,3.84336 v 13.59414 h 85.40624 v -13.20628 l -2.4,-0.38749 -62.65625,-3.7e-4 z"
       sodipodi:nodetypes="cccccccccccccccccccccccccccccccccccccccccsccscsssssccscsccscccscccccccccccccccscscccccccccc"
       inkscape:export-filename="alter-identity-logo.svg"
       inkscape:export-xdpi="96"
       inkscape:export-ydpi="96" />
  </g>
  <metadata
     id="metadata921">
    <rdf:RDF>
      <cc:Work
         rdf:about="">
        <dc:relation>https://fonts.google.com/specimen/Bitter</dc:relation>
        <dc:creator>
          <cc:Agent>
            <dc:title>Vaneixus Prime</dc:title>
          </cc:Agent>
        </dc:creator>
        <dc:rights>
          <cc:Agent>
            <dc:title>All Rights Reserved</dc:title>
          </cc:Agent>
        </dc:rights>
        <dc:publisher>
          <cc:Agent>
            <dc:title>Vaneixus Prime</dc:title>
          </cc:Agent>
        </dc:publisher>
      </cc:Work>
    </rdf:RDF>
  </metadata>
</svg>
